<svg xmlns="http://www.w3.org/2000/svg" width="1350" height="495" viewBox="0 0 270 99"><rect width="270" height="99" style="fill:#2d4668"/><g transform="translate(4 4)"><path d="M21 26L22.6 44 M24 24L24 44 M27 26L25.4 44" style="fill: none; stroke: #d2a53a; stroke-width: 1.6px; stroke-linecap: round"></path>
<path d="M22.6 44L17 64 M23.3 44L20.5 65 M24 44L24 66 M24.7 44L27.5 65 M25.4 44L31 64" style="fill: none; stroke: #d2a53a; stroke-width: 1.6px; stroke-linecap: butt"></path>
<g style="fill: #d2a53a; stroke: #9c7520; stroke-width: 0.3px"><ellipse cx="18.1" cy="24.3" rx="1.5" ry="2.7" transform="rotate(-1.1 18.1 24.3)"></ellipse><ellipse cx="21.1" cy="22.7" rx="1.5" ry="2.7" transform="rotate(-57.1 21.1 22.7)"></ellipse><ellipse cx="16.6" cy="21.5" rx="1.5" ry="2.7" transform="rotate(-1.1 16.6 21.5)"></ellipse><ellipse cx="19.5" cy="19.8" rx="1.5" ry="2.7" transform="rotate(-57.1 19.5 19.8)"></ellipse><ellipse cx="15" cy="18.7" rx="1.5" ry="2.7" transform="rotate(-1.1 15 18.7)"></ellipse><ellipse cx="18" cy="17" rx="1.5" ry="2.7" transform="rotate(-57.1 18 17)"></ellipse><ellipse cx="13.4" cy="15.9" rx="1.5" ry="2.7" transform="rotate(-1.1 13.4 15.9)"></ellipse><ellipse cx="16.4" cy="14.2" rx="1.5" ry="2.7" transform="rotate(-57.1 16.4 14.2)"></ellipse><ellipse cx="11.9" cy="13.1" rx="1.5" ry="2.7" transform="rotate(-1.1 11.9 13.1)"></ellipse><ellipse cx="14.8" cy="11.4" rx="1.5" ry="2.7" transform="rotate(-57.1 14.8 11.4)"></ellipse><ellipse cx="10.3" cy="10.3" rx="1.5" ry="2.7" transform="rotate(-1.1 10.3 10.3)"></ellipse><ellipse cx="13.3" cy="8.6" rx="1.5" ry="2.7" transform="rotate(-57.1 13.3 8.6)"></ellipse><ellipse cx="11" cy="8" rx="1.4" ry="2.7" transform="rotate(-29.1 11 8)"></ellipse><ellipse cx="22.3" cy="21.1" rx="1.5" ry="2.7" transform="rotate(28 22.3 21.1)"></ellipse><ellipse cx="25.7" cy="21.1" rx="1.5" ry="2.7" transform="rotate(-28 25.7 21.1)"></ellipse><ellipse cx="22.3" cy="17.8" rx="1.5" ry="2.7" transform="rotate(28 22.3 17.8)"></ellipse><ellipse cx="25.7" cy="17.8" rx="1.5" ry="2.7" transform="rotate(-28 25.7 17.8)"></ellipse><ellipse cx="22.3" cy="14.5" rx="1.5" ry="2.7" transform="rotate(28 22.3 14.5)"></ellipse><ellipse cx="25.7" cy="14.5" rx="1.5" ry="2.7" transform="rotate(-28 25.7 14.5)"></ellipse><ellipse cx="22.3" cy="11.2" rx="1.5" ry="2.7" transform="rotate(28 22.3 11.2)"></ellipse><ellipse cx="25.7" cy="11.2" rx="1.5" ry="2.7" transform="rotate(-28 25.7 11.2)"></ellipse><ellipse cx="22.3" cy="8" rx="1.5" ry="2.7" transform="rotate(28 22.3 8)"></ellipse><ellipse cx="25.7" cy="8" rx="1.5" ry="2.7" transform="rotate(-28 25.7 8)"></ellipse><ellipse cx="22.3" cy="4.7" rx="1.5" ry="2.7" transform="rotate(28 22.3 4.7)"></ellipse><ellipse cx="25.7" cy="4.7" rx="1.5" ry="2.7" transform="rotate(-28 25.7 4.7)"></ellipse><ellipse cx="24" cy="3" rx="1.4" ry="2.7" transform="rotate(0 24 3)"></ellipse><ellipse cx="26.9" cy="22.7" rx="1.5" ry="2.7" transform="rotate(57.1 26.9 22.7)"></ellipse><ellipse cx="29.9" cy="24.3" rx="1.5" ry="2.7" transform="rotate(1.1 29.9 24.3)"></ellipse><ellipse cx="28.5" cy="19.8" rx="1.5" ry="2.7" transform="rotate(57.1 28.5 19.8)"></ellipse><ellipse cx="31.4" cy="21.5" rx="1.5" ry="2.7" transform="rotate(1.1 31.4 21.5)"></ellipse><ellipse cx="30" cy="17" rx="1.5" ry="2.7" transform="rotate(57.1 30 17)"></ellipse><ellipse cx="33" cy="18.7" rx="1.5" ry="2.7" transform="rotate(1.1 33 18.7)"></ellipse><ellipse cx="31.6" cy="14.2" rx="1.5" ry="2.7" transform="rotate(57.1 31.6 14.2)"></ellipse><ellipse cx="34.6" cy="15.9" rx="1.5" ry="2.7" transform="rotate(1.1 34.6 15.9)"></ellipse><ellipse cx="33.2" cy="11.4" rx="1.5" ry="2.7" transform="rotate(57.1 33.2 11.4)"></ellipse><ellipse cx="36.1" cy="13.1" rx="1.5" ry="2.7" transform="rotate(1.1 36.1 13.1)"></ellipse><ellipse cx="34.7" cy="8.6" rx="1.5" ry="2.7" transform="rotate(57.1 34.7 8.6)"></ellipse><ellipse cx="37.7" cy="10.3" rx="1.5" ry="2.7" transform="rotate(1.1 37.7 10.3)"></ellipse><ellipse cx="37" cy="8" rx="1.4" ry="2.7" transform="rotate(29.1 37 8)"></ellipse></g>
<rect x="18.5" y="42.2" width="11" height="3.6" rx="1.2" transform="rotate(-10 24 44)" style="fill: #6e4a2a"></rect>
<g transform="translate(-13 11)"><path d="M38.6 22.8A17 17 0 1 1 61.2 45.4L56.2 44.2A13.5 13.5 0 1 0 38.6 22.8Z" style="fill: #f4f1ea; stroke: #cfc9bb; stroke-width: 0.3px; stroke-linejoin: round"></path>
<path d="M39.2 21.2A14.8 14.8 0 1 1 57.9 43.9" style="fill: none; stroke: #b3322a; stroke-width: 2px; stroke-linecap: round"></path>
<path d="M59.4 47.4L64.4 62.6" style="fill: none; stroke: #6e4a2a; stroke-width: 5px; stroke-linecap: round"></path>
<path d="M58.6 45.2L60.4 50.6" style="fill: none; stroke: #4a3220; stroke-width: 6.2px; stroke-linecap: butt"></path></g><text x="2" y="92" style="font:4px sans-serif;fill:#fff">c -13/+11</text></g><g transform="translate(93 4)"><path d="M21 26L22.6 44 M24 24L24 44 M27 26L25.4 44" style="fill: none; stroke: #d2a53a; stroke-width: 1.6px; stroke-linecap: round"></path>
<path d="M22.6 44L17 64 M23.3 44L20.5 65 M24 44L24 66 M24.7 44L27.5 65 M25.4 44L31 64" style="fill: none; stroke: #d2a53a; stroke-width: 1.6px; stroke-linecap: butt"></path>
<g style="fill: #d2a53a; stroke: #9c7520; stroke-width: 0.3px"><ellipse cx="18.1" cy="24.3" rx="1.5" ry="2.7" transform="rotate(-1.1 18.1 24.3)"></ellipse><ellipse cx="21.1" cy="22.7" rx="1.5" ry="2.7" transform="rotate(-57.1 21.1 22.7)"></ellipse><ellipse cx="16.6" cy="21.5" rx="1.5" ry="2.7" transform="rotate(-1.1 16.6 21.5)"></ellipse><ellipse cx="19.5" cy="19.8" rx="1.5" ry="2.7" transform="rotate(-57.1 19.5 19.8)"></ellipse><ellipse cx="15" cy="18.7" rx="1.5" ry="2.7" transform="rotate(-1.1 15 18.7)"></ellipse><ellipse cx="18" cy="17" rx="1.5" ry="2.7" transform="rotate(-57.1 18 17)"></ellipse><ellipse cx="13.4" cy="15.9" rx="1.5" ry="2.7" transform="rotate(-1.1 13.4 15.9)"></ellipse><ellipse cx="16.4" cy="14.2" rx="1.5" ry="2.7" transform="rotate(-57.1 16.4 14.2)"></ellipse><ellipse cx="11.9" cy="13.1" rx="1.5" ry="2.7" transform="rotate(-1.1 11.9 13.1)"></ellipse><ellipse cx="14.8" cy="11.4" rx="1.5" ry="2.7" transform="rotate(-57.1 14.8 11.4)"></ellipse><ellipse cx="10.3" cy="10.3" rx="1.5" ry="2.7" transform="rotate(-1.1 10.3 10.3)"></ellipse><ellipse cx="13.3" cy="8.6" rx="1.5" ry="2.7" transform="rotate(-57.1 13.3 8.6)"></ellipse><ellipse cx="11" cy="8" rx="1.4" ry="2.7" transform="rotate(-29.1 11 8)"></ellipse><ellipse cx="22.3" cy="21.1" rx="1.5" ry="2.7" transform="rotate(28 22.3 21.1)"></ellipse><ellipse cx="25.7" cy="21.1" rx="1.5" ry="2.7" transform="rotate(-28 25.7 21.1)"></ellipse><ellipse cx="22.3" cy="17.8" rx="1.5" ry="2.7" transform="rotate(28 22.3 17.8)"></ellipse><ellipse cx="25.7" cy="17.8" rx="1.5" ry="2.7" transform="rotate(-28 25.7 17.8)"></ellipse><ellipse cx="22.3" cy="14.5" rx="1.5" ry="2.7" transform="rotate(28 22.3 14.5)"></ellipse><ellipse cx="25.7" cy="14.5" rx="1.5" ry="2.7" transform="rotate(-28 25.7 14.5)"></ellipse><ellipse cx="22.3" cy="11.2" rx="1.5" ry="2.7" transform="rotate(28 22.3 11.2)"></ellipse><ellipse cx="25.7" cy="11.2" rx="1.5" ry="2.7" transform="rotate(-28 25.7 11.2)"></ellipse><ellipse cx="22.3" cy="8" rx="1.5" ry="2.7" transform="rotate(28 22.3 8)"></ellipse><ellipse cx="25.7" cy="8" rx="1.5" ry="2.7" transform="rotate(-28 25.7 8)"></ellipse><ellipse cx="22.3" cy="4.7" rx="1.5" ry="2.7" transform="rotate(28 22.3 4.7)"></ellipse><ellipse cx="25.7" cy="4.7" rx="1.5" ry="2.7" transform="rotate(-28 25.7 4.7)"></ellipse><ellipse cx="24" cy="3" rx="1.4" ry="2.7" transform="rotate(0 24 3)"></ellipse><ellipse cx="26.9" cy="22.7" rx="1.5" ry="2.7" transform="rotate(57.1 26.9 22.7)"></ellipse><ellipse cx="29.9" cy="24.3" rx="1.5" ry="2.7" transform="rotate(1.1 29.9 24.3)"></ellipse><ellipse cx="28.5" cy="19.8" rx="1.5" ry="2.7" transform="rotate(57.1 28.5 19.8)"></ellipse><ellipse cx="31.4" cy="21.5" rx="1.5" ry="2.7" transform="rotate(1.1 31.4 21.5)"></ellipse><ellipse cx="30" cy="17" rx="1.5" ry="2.7" transform="rotate(57.1 30 17)"></ellipse><ellipse cx="33" cy="18.7" rx="1.5" ry="2.7" transform="rotate(1.1 33 18.7)"></ellipse><ellipse cx="31.6" cy="14.2" rx="1.5" ry="2.7" transform="rotate(57.1 31.6 14.2)"></ellipse><ellipse cx="34.6" cy="15.9" rx="1.5" ry="2.7" transform="rotate(1.1 34.6 15.9)"></ellipse><ellipse cx="33.2" cy="11.4" rx="1.5" ry="2.7" transform="rotate(57.1 33.2 11.4)"></ellipse><ellipse cx="36.1" cy="13.1" rx="1.5" ry="2.7" transform="rotate(1.1 36.1 13.1)"></ellipse><ellipse cx="34.7" cy="8.6" rx="1.5" ry="2.7" transform="rotate(57.1 34.7 8.6)"></ellipse><ellipse cx="37.7" cy="10.3" rx="1.5" ry="2.7" transform="rotate(1.1 37.7 10.3)"></ellipse><ellipse cx="37" cy="8" rx="1.4" ry="2.7" transform="rotate(29.1 37 8)"></ellipse></g>
<rect x="18.5" y="42.2" width="11" height="3.6" rx="1.2" transform="rotate(-10 24 44)" style="fill: #6e4a2a"></rect>
<g transform="translate(-15 12)"><path d="M38.6 22.8A17 17 0 1 1 61.2 45.4L56.2 44.2A13.5 13.5 0 1 0 38.6 22.8Z" style="fill: #f4f1ea; stroke: #cfc9bb; stroke-width: 0.3px; stroke-linejoin: round"></path>
<path d="M39.2 21.2A14.8 14.8 0 1 1 57.9 43.9" style="fill: none; stroke: #b3322a; stroke-width: 2px; stroke-linecap: round"></path>
<path d="M59.4 47.4L64.1 61.6" style="fill: none; stroke: #6e4a2a; stroke-width: 5px; stroke-linecap: round"></path>
<path d="M58.6 45.2L60.4 50.6" style="fill: none; stroke: #4a3220; stroke-width: 6.2px; stroke-linecap: butt"></path></g><text x="2" y="92" style="font:4px sans-serif;fill:#fff">e -15/+12</text></g><g transform="translate(182 4)"><path d="M21 26L22.6 44 M24 24L24 44 M27 26L25.4 44" style="fill: none; stroke: #d2a53a; stroke-width: 1.6px; stroke-linecap: round"></path>
<path d="M22.6 44L17 64 M23.3 44L20.5 65 M24 44L24 66 M24.7 44L27.5 65 M25.4 44L31 64" style="fill: none; stroke: #d2a53a; stroke-width: 1.6px; stroke-linecap: butt"></path>
<g style="fill: #d2a53a; stroke: #9c7520; stroke-width: 0.3px"><ellipse cx="18.1" cy="24.3" rx="1.5" ry="2.7" transform="rotate(-1.1 18.1 24.3)"></ellipse><ellipse cx="21.1" cy="22.7" rx="1.5" ry="2.7" transform="rotate(-57.1 21.1 22.7)"></ellipse><ellipse cx="16.6" cy="21.5" rx="1.5" ry="2.7" transform="rotate(-1.1 16.6 21.5)"></ellipse><ellipse cx="19.5" cy="19.8" rx="1.5" ry="2.7" transform="rotate(-57.1 19.5 19.8)"></ellipse><ellipse cx="15" cy="18.7" rx="1.5" ry="2.7" transform="rotate(-1.1 15 18.7)"></ellipse><ellipse cx="18" cy="17" rx="1.5" ry="2.7" transform="rotate(-57.1 18 17)"></ellipse><ellipse cx="13.4" cy="15.9" rx="1.5" ry="2.7" transform="rotate(-1.1 13.4 15.9)"></ellipse><ellipse cx="16.4" cy="14.2" rx="1.5" ry="2.7" transform="rotate(-57.1 16.4 14.2)"></ellipse><ellipse cx="11.9" cy="13.1" rx="1.5" ry="2.7" transform="rotate(-1.1 11.9 13.1)"></ellipse><ellipse cx="14.8" cy="11.4" rx="1.5" ry="2.7" transform="rotate(-57.1 14.8 11.4)"></ellipse><ellipse cx="10.3" cy="10.3" rx="1.5" ry="2.7" transform="rotate(-1.1 10.3 10.3)"></ellipse><ellipse cx="13.3" cy="8.6" rx="1.5" ry="2.7" transform="rotate(-57.1 13.3 8.6)"></ellipse><ellipse cx="11" cy="8" rx="1.4" ry="2.7" transform="rotate(-29.1 11 8)"></ellipse><ellipse cx="22.3" cy="21.1" rx="1.5" ry="2.7" transform="rotate(28 22.3 21.1)"></ellipse><ellipse cx="25.7" cy="21.1" rx="1.5" ry="2.7" transform="rotate(-28 25.7 21.1)"></ellipse><ellipse cx="22.3" cy="17.8" rx="1.5" ry="2.7" transform="rotate(28 22.3 17.8)"></ellipse><ellipse cx="25.7" cy="17.8" rx="1.5" ry="2.7" transform="rotate(-28 25.7 17.8)"></ellipse><ellipse cx="22.3" cy="14.5" rx="1.5" ry="2.7" transform="rotate(28 22.3 14.5)"></ellipse><ellipse cx="25.7" cy="14.5" rx="1.5" ry="2.7" transform="rotate(-28 25.7 14.5)"></ellipse><ellipse cx="22.3" cy="11.2" rx="1.5" ry="2.7" transform="rotate(28 22.3 11.2)"></ellipse><ellipse cx="25.7" cy="11.2" rx="1.5" ry="2.7" transform="rotate(-28 25.7 11.2)"></ellipse><ellipse cx="22.3" cy="8" rx="1.5" ry="2.7" transform="rotate(28 22.3 8)"></ellipse><ellipse cx="25.7" cy="8" rx="1.5" ry="2.7" transform="rotate(-28 25.7 8)"></ellipse><ellipse cx="22.3" cy="4.7" rx="1.5" ry="2.7" transform="rotate(28 22.3 4.7)"></ellipse><ellipse cx="25.7" cy="4.7" rx="1.5" ry="2.7" transform="rotate(-28 25.7 4.7)"></ellipse><ellipse cx="24" cy="3" rx="1.4" ry="2.7" transform="rotate(0 24 3)"></ellipse><ellipse cx="26.9" cy="22.7" rx="1.5" ry="2.7" transform="rotate(57.1 26.9 22.7)"></ellipse><ellipse cx="29.9" cy="24.3" rx="1.5" ry="2.7" transform="rotate(1.1 29.9 24.3)"></ellipse><ellipse cx="28.5" cy="19.8" rx="1.5" ry="2.7" transform="rotate(57.1 28.5 19.8)"></ellipse><ellipse cx="31.4" cy="21.5" rx="1.5" ry="2.7" transform="rotate(1.1 31.4 21.5)"></ellipse><ellipse cx="30" cy="17" rx="1.5" ry="2.7" transform="rotate(57.1 30 17)"></ellipse><ellipse cx="33" cy="18.7" rx="1.5" ry="2.7" transform="rotate(1.1 33 18.7)"></ellipse><ellipse cx="31.6" cy="14.2" rx="1.5" ry="2.7" transform="rotate(57.1 31.6 14.2)"></ellipse><ellipse cx="34.6" cy="15.9" rx="1.5" ry="2.7" transform="rotate(1.1 34.6 15.9)"></ellipse><ellipse cx="33.2" cy="11.4" rx="1.5" ry="2.7" transform="rotate(57.1 33.2 11.4)"></ellipse><ellipse cx="36.1" cy="13.1" rx="1.5" ry="2.7" transform="rotate(1.1 36.1 13.1)"></ellipse><ellipse cx="34.7" cy="8.6" rx="1.5" ry="2.7" transform="rotate(57.1 34.7 8.6)"></ellipse><ellipse cx="37.7" cy="10.3" rx="1.5" ry="2.7" transform="rotate(1.1 37.7 10.3)"></ellipse><ellipse cx="37" cy="8" rx="1.4" ry="2.7" transform="rotate(29.1 37 8)"></ellipse></g>
<rect x="18.5" y="42.2" width="11" height="3.6" rx="1.2" transform="rotate(-10 24 44)" style="fill: #6e4a2a"></rect>
<g transform="translate(-16 14)"><path d="M38.6 22.8A17 17 0 1 1 61.2 45.4L56.2 44.2A13.5 13.5 0 1 0 38.6 22.8Z" style="fill: #f4f1ea; stroke: #cfc9bb; stroke-width: 0.3px; stroke-linejoin: round"></path>
<path d="M39.2 21.2A14.8 14.8 0 1 1 57.9 43.9" style="fill: none; stroke: #b3322a; stroke-width: 2px; stroke-linecap: round"></path>
<path d="M59.4 47.4L63.5 59.7" style="fill: none; stroke: #6e4a2a; stroke-width: 5px; stroke-linecap: round"></path>
<path d="M58.6 45.2L60.4 50.6" style="fill: none; stroke: #4a3220; stroke-width: 6.2px; stroke-linecap: butt"></path></g><text x="2" y="92" style="font:4px sans-serif;fill:#fff">f -16/+14</text></g></svg>